<svg width="660" height="660" viewBox="0 0 660 660" fill="none" xmlns="http://www.w3.org/2000/svg">
<circle cx="330" cy="330" r="319.5" fill="white" stroke="black" stroke-width="21"/>
<path d="M383.502 156.229C342.832 157.884 298.606 168.476 255.289 188.651C202.33 213.311 159.561 248.071 131.121 286.181C131.345 286.293 131.663 286.397 131.887 286.509C134.574 287.742 136.718 289.99 137.726 292.792L174.77 393.321C178.913 404.305 184.862 410.25 192.812 410.922C192.476 407.896 191.681 404.545 190.45 401.071L153.383 300.63C151.816 296.482 152.829 291.881 155.964 288.742C178.021 266.773 178.035 266.776 178.707 266.215C179.602 265.543 180.605 264.997 181.724 264.661C199.079 258.16 225.384 248.394 227.735 247.497C227.847 247.497 228.082 247.388 228.194 247.388L269.154 232.479C270.385 232.031 271.637 231.801 272.98 231.801C275.108 231.801 277.222 232.363 279.125 233.596L310.594 254.459L306.789 243.907C305.221 239.76 306.234 235.18 309.369 232.042L330.975 210.522C332.095 209.401 333.431 208.499 334.999 207.938L381.25 190.797C382.594 190.349 383.821 190.118 385.164 190.118C389.643 190.118 394.006 192.925 395.574 197.408L399.16 206.822C410.357 192.587 424.906 179.253 440.469 169.277C440.917 168.941 441.254 168.708 441.366 168.708C443.493 167.363 445.84 166.022 448.079 164.789L448.867 164.329C449.65 163.881 450.442 163.442 451.338 162.994C451.562 162.882 451.66 162.775 451.884 162.775C431.017 157.479 407.905 155.236 383.502 156.229ZM497.676 162.994C488.383 162.994 478.77 164.557 469.029 167.92C468.021 168.144 466.997 168.481 465.989 168.817C462.63 170.05 459.393 171.517 456.258 173.086C455.362 173.535 454.355 174.08 453.459 174.641C451.443 175.761 449.327 176.888 447.423 178.121C447.199 178.346 446.86 178.447 446.636 178.559C423.347 193.579 405.321 214.547 396.252 231.472L385.164 201.327L338.804 218.469L317.198 239.988L332.878 282.481L272.98 243.01L231.999 257.918C231.887 257.918 185.529 275.082 185.529 275.082C185.418 275.194 163.814 296.711 163.814 296.711L200.968 397.261C203.208 403.426 204.565 410.031 204.117 416.308C203.334 420.006 200.536 421.354 197.513 421.802C196.17 422.027 194.811 422.131 193.468 422.131H192.812C178.032 421.458 169.064 410.151 164.361 397.261L127.185 296.711L122.374 298.506L80.6058 313.962L59 335.482L95.2794 433.909C108.715 470.337 132.346 493.527 165.936 494.2C166.495 494.312 167.169 494.331 167.729 494.331C169.072 494.331 170.518 494.312 171.862 494.2C195.71 492.967 221.246 482.55 237.816 464.952C245.206 457.666 253.261 450.274 259.532 443.213C259.643 443.101 259.769 442.865 259.881 442.753C261.225 441.184 262.567 439.744 263.686 438.287C263.91 437.951 264.116 437.595 264.452 437.258C265.46 435.913 266.358 434.575 267.142 433.23L276.108 457.552L322.796 440.301L344.511 418.891C344.399 418.779 328.394 375.17 327.498 372.48L391.091 415.082L429.491 401.071L451.097 379.441C450.985 379.441 448.538 372.698 448.538 372.698C458.727 376.734 469.702 378.872 481.122 378.872C491.759 378.872 502.84 376.974 513.924 372.939C516.052 372.155 518.073 371.365 520.201 370.356C539.235 362.062 558.699 347.377 577.845 316.217C578.853 314.536 579.754 313.079 580.426 311.51C580.538 311.174 580.661 310.949 580.885 310.612C582.005 308.483 583.004 306.352 584.012 304.11L585.018 301.746C586.25 298.72 587.359 295.712 588.255 292.573C588.478 291.901 588.602 291.319 588.714 290.647C589.386 288.069 590.059 285.497 590.507 282.919C590.731 281.798 590.832 280.69 590.944 279.569C591.28 277.44 591.508 275.197 591.732 273.067C591.844 271.834 591.838 270.491 591.95 269.258C591.95 267.129 592.062 264.993 591.95 262.975C591.95 261.63 591.953 260.292 591.841 258.947C591.729 256.817 591.518 254.684 591.294 252.555C591.07 251.322 590.95 249.978 590.726 248.745C590.39 246.391 589.951 244.137 589.392 241.784C589.168 240.663 588.94 239.552 588.604 238.544C587.709 235.069 586.687 231.704 585.455 228.342C571.012 189.335 536.64 162.994 497.676 162.994ZM497.676 175.998C530.818 175.998 560.489 198.304 573.253 232.939C588.368 273.739 574.157 314.982 540.232 334.037H540.123C536.54 336.055 532.735 337.724 528.817 339.182C519.859 342.432 510.791 344.129 501.722 344.129C468.468 344.129 438.688 321.82 426.036 287.297C418.199 266.001 418.067 243.467 425.905 223.963C433.854 203.9 449.647 188.655 470.472 181.033C476.518 178.791 482.793 177.218 488.951 176.545C491.862 176.209 494.765 175.998 497.676 175.998ZM497.02 198.306C490.75 198.306 484.464 199.411 478.082 201.765C462.519 207.593 451.672 218.596 446.745 233.727C442.491 246.954 443.159 262.64 448.757 277.884C458.386 303.888 478.66 320.026 501.613 320.026C507.771 320.026 514.147 318.899 520.529 316.545C536.876 310.492 547.846 298.278 552.325 282.809V282.7C556.02 270.258 555.343 255.577 549.745 240.558C545.714 229.461 539.678 220.273 532.512 213.324C522.548 203.684 510.232 198.306 497.02 198.306ZM377.445 218.031L434.433 371.801L414.49 379.091L283.936 291.676L327.826 411.032L305.433 419.329L248.685 265.668L271.297 257.48L397.695 340.758L355.489 226.087L377.445 218.031ZM475.415 233.049C478.662 233.049 482.02 233.485 485.714 234.494C499.71 238.305 510.335 251.319 516.046 266.675C517.165 269.813 518.064 272.95 518.735 276.089C521.311 288.642 520.083 297.274 514.821 302.206C511.686 305.12 507.096 306.694 501.722 306.694C497.019 306.694 491.643 305.455 485.933 303.213C485.037 302.765 484.248 302.435 483.353 301.987C481.897 301.09 480.563 300.065 479.22 298.944C478.212 298.271 477.185 297.608 476.289 296.711C474.946 295.478 473.716 294.14 472.484 292.683C471.7 291.898 470.816 290.996 470.144 290.1C468.801 288.418 467.675 286.62 466.667 284.714C466.107 283.929 465.431 283.027 464.983 282.131C463.416 279.329 462.079 276.425 460.96 273.286C459.952 270.708 459.18 267.898 458.62 265.208C458.396 264.424 458.275 263.541 458.051 262.756C457.715 260.851 457.488 258.817 457.264 256.911C457.152 256.014 457.157 255.115 457.045 254.218C456.933 252.201 457.043 250.194 457.155 248.176C457.267 247.504 457.152 246.944 457.264 246.272L457.592 244.936C460.055 236.866 466.681 233.049 475.415 233.049ZM475.415 244.257C469.592 244.257 468.799 246.724 468.351 247.957V249.183C468.239 250.528 468.13 251.998 468.242 253.343C468.242 253.903 468.351 254.337 468.351 254.897V255.576L468.46 256.145C468.572 257.602 468.805 259.047 469.029 260.392C469.141 260.84 469.245 261.405 469.357 262.078L469.466 262.515L469.576 262.975C470.024 265.217 470.694 267.347 471.478 269.477C472.374 271.943 473.5 274.296 474.955 276.986C475.067 277.322 475.407 277.54 475.743 278.212L476.18 278.781L476.53 279.438C477.314 280.895 478.081 282.146 479.088 283.379C479.424 283.827 479.996 284.266 480.444 284.714L480.772 285.042L481.013 285.393C482.02 286.514 482.906 287.509 484.249 288.742C484.585 289.078 485.029 289.304 485.365 289.64L485.933 289.99L486.371 290.318C487.154 290.991 487.946 291.553 488.842 292.114L489.41 292.442L490.416 292.902C494.559 294.583 498.475 295.485 501.722 295.485C504.185 295.485 506.203 294.915 507.211 294.018C508.666 292.561 509.661 287.734 507.758 278.431C507.198 275.741 506.423 273.06 505.527 270.594C500.601 257.255 492.077 247.84 482.784 245.374C480.097 244.589 477.654 244.257 475.415 244.257ZM224.367 274.622L256.623 362.059C272.97 406.221 261.891 435.819 222.815 452.408L219.228 453.853L215.642 455.21L213.849 455.757C205.227 458.447 196.948 459.807 189.335 459.807C162.015 459.807 141.742 442.315 128.978 407.792L102.671 336.379L97.1819 321.602L111.965 316.217L119.575 313.415L152.159 401.727C159.772 422.464 173.993 434.35 192.243 435.135H194.146C199.52 435.135 204.888 434.129 210.262 432.223C216.309 429.981 221.682 426.74 226.161 422.481C239.261 410.039 242.303 391.878 234.689 371.254L202.106 282.919L224.367 274.622ZM508.545 386.272C499.476 388.85 490.303 390.081 481.122 390.081C473.62 390.081 466.116 389.288 458.838 387.607L437.342 409.017C436.222 410.138 434.864 411.04 433.296 411.601L394.896 425.612C393.664 426.06 392.322 426.29 391.091 426.29C388.851 426.29 386.718 425.619 384.815 424.386L349.782 400.961C352.357 407.799 354.363 413.061 354.811 414.293C355.147 415.19 355.375 415.98 355.599 416.877C356.27 420.576 355.047 424.26 352.471 426.838L330.734 448.248C329.503 449.369 328.166 450.271 326.711 450.831L280.022 468.082C278.678 468.531 277.451 468.761 276.108 468.761C271.517 468.761 267.268 465.954 265.589 461.471L263.337 455.429C259.53 459.464 255.515 463.374 251.484 467.185C249.469 469.09 247.563 471.001 245.995 472.57C232.111 487.366 212.513 498.139 191.128 502.847C246.998 517.531 319.319 509.895 389.298 477.277C439.122 454.075 480.106 421.803 508.545 386.272Z" fill="black"/>
</svg>
